<?xml version="1.0" encoding="utf-8"?>
<!-- Generator: Adobe Adobe Illustrator 24.2.0, SVG Export Plug-In . SVG Version: 6.00 Build 0)  -->
<svg version="1.1" xmlns="http://www.w3.org/2000/svg" xmlns:xlink="http://www.w3.org/1999/xlink" x="0px" y="0px" width="720px"
	 height="720px" viewBox="0 0 720 720" style="enable-background:new 0 0 720 720;" xml:space="preserve">
<style type="text/css">
	.st0{fill:none;stroke:#000000;stroke-width:5;stroke-linecap:round;stroke-miterlimit:10;}
	.st1{display:none;}
	.st2{display:inline;fill:none;}
	.st3{display:inline;}
	.st4{fill:#C0C71B;}
	.st5{fill:#4D1850;}
	.st6{fill:#1C6B7B;}
</style>
<g id="Layer_1">
</g>
<g id="Layer_2">
	<g>
		<path d="M207.58,255.69c-0.71-0.04-0.82,0.58-1.01,1.01c-0.7,1.61-1.34,3.25-1.99,4.88c-3.08,7.69-5.43,15.56-6.81,23.75
			c-1.26,7.48-1.75,14.99-1.93,22.55c-0.08,3.51-0.26,7.02-0.35,10.53c-0.19,6.86,0.1,13.69,0.87,20.52
			c1.04,9.26,2.32,18.47,4.17,27.6c0.26,1.29,0.59,2.57,0.93,3.84c1.14,4.24,2.29,8.48,3.46,12.71c1.39,5.09,3.04,10.09,4.98,14.99
			c2.85,7.18,5.7,14.37,8.66,21.5c2.53,6.1,5.62,11.9,9.48,17.29c1.17,1.64,2.14,3.42,3.16,5.16c0.31,0.52,0.55,1.11,0.71,1.69
			c0.28,1.05-0.4,1.97-1.5,1.98c-0.69,0.01-1.41-0.06-2.09-0.23c-4.05-1.02-7.86-0.26-11.48,1.62c-3.22,1.67-6.68,2.68-10.09,3.8
			c-2.78,0.92-5.65,1.25-8.57,0.67c-0.43-0.09-0.87-0.17-1.28-0.31c-2.1-0.75-3.03-2.56-2.16-4.61c0.51-1.19,1.23-2.37,2.13-3.28
			c1.54-1.55,3.19-3.03,4.98-4.29c2.51-1.77,5.18-3.31,7.79-4.93c2.46-1.53,4.95-3.02,7.41-4.54c0.45-0.28,0.89-0.57,1.3-0.89
			c0.52-0.42,0.74-0.97,0.53-1.64c-0.22-0.68-0.86-1.25-1.57-1.17c-0.77,0.08-1.56,0.27-2.27,0.58c-2.25,0.99-4.47,2.06-6.69,3.1
			c-2.07,0.97-4.21,1.77-6.47,2.18c-4.76,0.87-9.44,0.62-14.05-0.9c-0.41-0.14-0.82-0.31-1.21-0.52c-0.61-0.33-0.75-0.92-0.48-1.57
			c0.46-1.11,1.38-1.78,2.27-2.51c5.09-4.16,10.82-7.17,16.98-9.39c0.82-0.3,1.62-0.66,2.41-1.02c0.12-0.06,0.26-0.31,0.23-0.43
			c-0.06-0.23-0.21-0.58-0.37-0.6c-0.77-0.13-1.55-0.22-2.33-0.22c-2.55,0.01-5.09,0.1-7.64,0.1c-3.79,0-7.54-0.41-11.26-1.13
			c-4.22-0.82-8.01-2.56-11.36-5.26c-1.31-1.06-2.51-2.24-3.23-3.77c-0.4-0.85-0.69-1.81-0.78-2.75c-0.12-1.33,0.93-2.22,2.2-1.85
			c5.02,1.44,10.22,1.63,15.34,2.37c3.93,0.57,7.89,0.59,11.8-0.26c0.76-0.17,1.55-0.38,2.23-0.75c1.02-0.55,1-2.09-0.05-2.58
			c-0.78-0.37-1.66-0.58-2.52-0.69c-2.44-0.3-4.9-0.46-7.34-0.77c-3.83-0.48-7.67-0.93-11.48-1.57c-3.22-0.54-6.27-1.67-9.16-3.22
			c-2.28-1.22-4.25-2.8-5.81-4.87c-0.26-0.34-0.44-0.73-0.62-1.03c0.3-1.21,1.2-1.6,2.12-1.93c1.75-0.63,3.55-1.05,5.41-1.01
			c3.35,0.07,6.66-0.31,9.97-0.77c3.89-0.54,7.7-0.28,11.47,0.82c1.17,0.34,2.4,0.54,3.6,0.74c0.42,0.07,0.9,0.04,1.29-0.1
			c0.27-0.1,0.5-0.45,0.61-0.74c0.06-0.18-0.08-0.56-0.25-0.68c-0.42-0.3-0.89-0.57-1.38-0.74c-2.09-0.72-4.27-1-6.46-1.15
			c-2.8-0.18-5.61-0.34-8.41-0.55c-3.07-0.23-6.11-0.71-9.07-1.55c-1.1-0.31-2.19-0.65-3.24-1.09c-1.05-0.44-2.12-0.91-3.04-1.55
			c-0.99-0.69-1.73-1.78-2.77-2.37c-1.08-0.61-2.09-1.25-2.99-2.1c-1.04-0.98-1.86-2.12-2.35-3.46c-0.91-2.48,0.41-4.45,3.04-4.55
			c0.61-0.02,1.24,0.04,1.83,0.17c2.22,0.5,4.5,0.87,6.64,1.6c2.35,0.81,4.77,1.15,7.18,1.64c1.2,0.25,2.44,0.39,3.61,0.73
			c3.26,0.94,6.59,0.97,9.93,0.83c0.86-0.04,1.74-0.24,2.57-0.5c0.63-0.19,0.96-0.75,0.91-1.44c-0.04-0.58-0.36-1.03-0.9-1.18
			c-0.75-0.22-1.53-0.38-2.31-0.45c-2.45-0.2-4.91-0.33-7.36-0.51c-6.35-0.47-12.48-1.92-18.44-4.13c-2.8-1.04-5.02-2.86-6.98-5.04
			c-1.13-1.26-1.91-2.74-2.37-4.37c-0.67-2.39,0.79-4.32,3.28-4.08c1.04,0.1,2.11,0.2,3.11,0.5c1.76,0.53,3.52,1.12,5.21,1.83
			c3.09,1.31,6.29,2.21,9.59,2.81c2.62,0.48,5.25,0.42,7.87,0.11c0.86-0.1,1.71-0.37,2.53-0.67c0.51-0.19,0.89-0.68,0.72-1.25
			c-0.11-0.37-0.43-0.83-0.77-0.95c-0.73-0.28-1.52-0.41-2.3-0.53c-2.52-0.39-5.05-0.7-7.56-1.12c-5-0.84-9.62-2.75-13.99-5.25
			c-1.5-0.86-2.83-2.07-4.12-3.24c-0.7-0.63-1.26-1.47-1.72-2.31c-0.93-1.73-0.09-3.68,1.84-4.11c1.09-0.24,2.26-0.19,3.4-0.16
			c1.75,0.04,3.5,0.1,5.25,0.27c1.48,0.14,2.96,0.41,4.42,0.67c3.2,0.57,6.39,1.16,9.58,1.78c1.46,0.28,2.91,0.67,4.36,0.99
			c0.68,0.15,1.37,0.3,2.07,0.35c0.7,0.05,1.26-0.41,1.37-0.98c0.13-0.68-0.13-1.23-0.72-1.56c-0.54-0.29-1.1-0.57-1.69-0.71
			c-2.39-0.57-4.77-1.18-7.19-1.6c-2.86-0.5-5.7-1.03-8.41-2.11c-2.47-0.99-4.71-2.35-6.67-4.16c-1.5-1.39-2.69-3.01-3.49-4.9
			c-0.59-1.4-0.11-2.69,1.29-3.23c0.71-0.28,1.55-0.42,2.31-0.34c1.39,0.14,2.8,0.35,4.13,0.76c4.12,1.3,8.32,2.18,12.56,2.91
			c1.72,0.29,3.36,0.98,5.05,1.44c0.84,0.23,1.7,0.49,2.56,0.5c1.18,0.02,1.88-1.24,1.26-2.27c-0.34-0.57-0.89-1.13-1.48-1.41
			c-1.26-0.59-2.59-1.11-3.94-1.47c-2.8-0.74-5.64-1.33-8.45-2.05c-1.7-0.43-3.41-0.88-5.04-1.52c-1.46-0.57-2.87-1.33-4.2-2.16
			c-1.59-1-2.75-2.46-3.5-4.19c-0.34-0.8-0.67-1.67-0.69-2.52c-0.09-3.21,1.03-4.35,4.12-2.96c1.36,0.61,2.67,1.34,3.99,2.04
			c2.97,1.56,6.08,2.72,9.37,3.44c2.31,0.51,4.59,1.17,6.89,1.76c0.34,0.09,0.68,0.22,1.02,0.24c0.55,0.04,1.06-0.12,1.3-0.68
			c0.25-0.55,0.12-1.11-0.37-1.39c-0.83-0.47-1.71-0.86-2.6-1.18c-3.88-1.4-7.74-2.82-11.22-5.13c-2.74-1.82-4.59-4.31-5.79-7.32
			c-0.29-0.72-0.48-1.52-0.52-2.29c-0.09-1.82,1.1-2.98,2.93-2.93c1.35,0.04,2.55,0.57,3.69,1.29c2.01,1.27,4.02,2.52,6.05,3.74
			c0.98,0.59,2,1.1,3.02,1.61c0.39,0.19,0.82,0.38,1.24,0.4c0.28,0.01,0.64-0.22,0.85-0.45c0.12-0.14,0.12-0.55,0-0.72
			c-0.29-0.42-0.64-0.84-1.05-1.16c-3.56-2.75-6.58-6.08-9.79-9.2c-0.69-0.67-1.36-1.41-1.82-2.23c-1.06-1.92-0.66-3.95,0.85-4.95
			c1.18-0.78,3.28-0.43,4.51,1.03c1.47,1.74,2.71,3.67,4.1,5.48c0.96,1.25,1.93,2.5,3.02,3.64c0.93,0.96,2.13,1.55,3.51,1.64
			c1.79,0.12,2.85-1.23,2.2-2.9c-0.28-0.71-0.77-1.38-1.31-1.94c-0.78-0.82-1.67-1.56-2.54-2.29c-2.77-2.33-5.2-4.98-7.51-7.75
			c-0.99-1.19-1.67-2.49-1.66-4.05c0-0.6,0.09-1.24,0.31-1.79c0.6-1.48,2.48-2.02,3.73-1.03c0.68,0.53,1.17,1.29,1.76,1.94
			c1.48,1.62,2.92,3.27,4.45,4.84c0.86,0.89,1.92,1.54,3.13,1.89c0.79,0.23,1.51,0.04,1.91-0.5c0.41-0.55,0.43-1.19,0.12-1.75
			c-0.38-0.68-0.83-1.34-1.35-1.93c-0.87-0.98-1.87-1.86-2.73-2.85c-1.33-1.52-2.6-3.09-3.89-4.64c-0.83-1-1.02-2.22-1.03-3.46
			c-0.01-0.93,1.04-1.64,1.87-1.24c0.61,0.3,1.17,0.76,1.68,1.23c0.64,0.6,1.15,1.33,1.78,1.94c1.14,1.1,2.1,1.37,2.77,0.87
			c0.7-0.53,0.66-1.52-0.21-2.85c-0.57-0.88-1.29-1.68-1.84-2.57c-0.46-0.74-0.87-1.53-1.14-2.35c-0.29-0.87-0.11-1.74,0.58-2.43
			c0.38-0.38,1.06-0.52,1.43-0.15c0.74,0.74,1.43,1.54,2.12,2.33c0.74,0.86,1.4,1.81,2.2,2.61c0.48,0.48,1.13,0.83,1.77,1.06
			c0.32,0.11,0.92-0.06,1.16-0.32c0.24-0.26,0.36-0.87,0.22-1.19c-0.31-0.71-0.79-1.35-1.25-1.99c-1.08-1.5-2.21-2.95-3.26-4.47
			c-0.34-0.49-0.53-1.1-0.68-1.68c-0.14-0.52,0.53-1.07,1.01-0.83c0.54,0.27,1.07,0.6,1.52,0.99c0.8,0.69,1.48,1.52,2.31,2.15
			c0.61,0.46,1.35,0.81,2.09,1c0.8,0.21,1.65-0.54,1.55-1.36c-0.1-0.76-0.37-1.53-0.73-2.2c-0.49-0.93-1.2-1.74-1.67-2.68
			c-0.3-0.6-0.42-1.32-0.48-1.99c-0.02-0.24,0.34-0.59,0.61-0.75c0.16-0.1,0.56-0.01,0.72,0.14c0.45,0.41,0.82,0.91,1.24,1.36
			c0.93,1,2.05,1.64,3.43,1.78c1.21,0.12,1.81-0.18,2.33-1.27c0.27-0.55,0.42-1.15,0.65-1.72c0.45-1.14,0.85-2.31,1.39-3.41
			c0.42-0.86,0.99-1.66,1.56-2.43c0.41-0.55,0.89-1.15,1.74-0.84c0.58,0.22,0.8,0.84,0.53,1.84c-0.25,0.93-0.6,1.83-0.96,2.73
			c-0.22,0.57-0.56,1.09-0.78,1.67c-0.11,0.3-0.07,0.67-0.11,1.18c0.88,0.24,1.71,0.43,2.52,0.7c0.22,0.07,0.51,0.34,0.51,0.51
			c0,0.31-0.11,0.78-0.32,0.89c-1,0.54-2.05,0.98-3.07,1.47c-0.59,0.29-1.38,0.32-1.6,1.31c1.24,0.78,2.97,0.08,4.27,1.3
			c-1.9,1.26-4.25,1.34-6,2.81c0.57,0.7,1.21,0.41,1.77,0.43c0.61,0.02,1.23-0.02,1.84-0.03c0.53,0,1.06-0.03,1.58,0.03
			c0.59,0.06,1.17,0.2,1.98,0.34c-0.2,0.52-0.24,1.02-0.51,1.23c-0.82,0.64-1.69,1.27-2.63,1.71c-1.11,0.51-2.32,0.8-3.48,1.2
			c-0.81,0.28-1.7,0.41-2.5,1.27c0.54,0.21,0.89,0.47,1.25,0.47c1.76,0.02,3.51-0.04,5.27-0.05c0.95-0.01,1.93-0.15,2.97,0.54
			c-0.42,0.43-0.69,0.9-1.1,1.1c-1.65,0.82-3.32,1.61-5.01,2.32c-1.37,0.58-2.81,1.02-4.19,1.58c-0.55,0.22-1.04,0.58-1.83,1.04
			c0.53,0.28,0.79,0.54,1.04,0.53c1.32-0.02,2.63-0.12,3.95-0.16c2.19-0.06,4.39-0.13,6.58-0.13c0.78,0,1.71,0.02,2.04,0.89
			c0.39,1.02-0.47,1.58-1.11,2.16c-0.88,0.78-1.94,1.25-3.07,1.42c-1.64,0.25-3.31,0.36-4.97,0.51c-1.4,0.12-2.81,0.14-4.19,0.34
			c-0.95,0.14-1.87,0.5-2.26,1.74c0.4,0.19,0.76,0.48,1.14,0.5c1.05,0.06,2.11,0.01,3.16,0.01c2.81,0.01,5.62,0,8.43,0.08
			c0.76,0.02,1.53,0.3,2.26,0.57c0.16,0.06,0.31,0.75,0.19,0.87c-0.55,0.55-1.13,1.1-1.81,1.45c-2.13,1.1-4.44,1.63-6.81,1.91
			c-1.57,0.19-3.15,0.33-4.7,0.62c-0.84,0.15-1.69,0.47-2.45,0.88c-0.91,0.5-0.82,1.63,0.12,2.09c1.74,0.84,3.58,0.88,5.41,0.46
			c1.8-0.41,3.57-0.92,5.34-1.43c1.88-0.54,3.79-0.79,5.73-0.59c1.03,0.11,2.08,0.37,3.06,0.72c1.12,0.4,1.26,1.49,0.33,2.27
			c-0.53,0.44-1.14,0.84-1.78,1.09c-1.22,0.48-2.47,0.92-3.75,1.22c-4.01,0.97-8.04,1.86-12.06,2.79c-1.03,0.24-2.06,0.46-3.06,0.77
			c-0.47,0.14-0.87,0.49-1.49,0.85c0.47,0.41,0.73,0.78,1.08,0.93c1.49,0.64,3.07,0.74,4.66,0.52c1.65-0.22,3.3-0.52,4.94-0.8
			c2.86-0.48,5.73-0.92,8.64-0.7c0.67,0.05,1.33,0.24,2.2,0.41c-0.28,0.58-0.38,1.02-0.65,1.29c-1.52,1.5-3.28,2.67-5.3,3.37
			c-2.74,0.95-5.51,1.79-8.27,2.66c-1.59,0.5-3.22,0.91-4.77,1.5c-0.88,0.33-1.72,0.87-2.45,1.48c-0.74,0.63-0.42,1.82,0.53,2.11
			c0.66,0.2,1.38,0.27,2.07,0.29c2.85,0.06,5.57-0.69,8.27-1.46c2.96-0.83,5.89-1.77,8.84-2.62c1.35-0.39,2.72-0.75,4.15-0.56
			c0.78,0.1,1.64,0.14,1.99,1.02c0.34,0.86-0.17,1.53-0.7,2.13c-1.17,1.34-2.53,2.48-4.15,3.2c-2,0.89-4.04,1.74-6.12,2.39
			c-3.27,1.02-6.6,1.84-9.89,2.78c-1.18,0.34-2.35,0.74-3.47,1.23c-0.63,0.27-1.24,0.7-1.7,1.2c-0.96,1.07-0.43,2.55,1,2.78
			c0.77,0.13,1.59,0.16,2.36,0.05c1.39-0.2,2.77-0.48,4.12-0.84c4.59-1.2,9.16-2.46,13.75-3.65c1.7-0.44,3.43-0.78,5.15-1.11
			c0.5-0.1,1.05-0.06,1.56-0.02c0.4,0.03,0.76,0.69,0.52,1.02c-0.61,0.84-1.17,1.82-1.99,2.39c-1.72,1.2-3.51,2.37-5.42,3.21
			c-3.86,1.69-7.82,3.14-11.73,4.73c-1.95,0.79-3.9,1.6-5.78,2.55c-1,0.51-1.89,1.27-2.74,2.01c-0.7,0.61-0.98,1.47-0.66,2.4
			c0.32,0.94,1.09,1.4,2.02,1.44c0.96,0.03,1.96,0.05,2.86-0.21c1.85-0.55,3.68-1.18,5.44-1.97c2.4-1.08,4.71-2.36,7.08-3.52
			c3.18-1.57,6.55-2.51,10.08-2.88c1.68-0.18,3.34-0.05,4.94,0.51c0.92,0.33,1.89,0.72,2.09,1.8c0.23,1.23-0.65,1.95-1.55,2.52
			c-0.81,0.51-1.69,0.96-2.59,1.28c-8.05,2.88-15.56,6.92-23.15,10.8c-1.4,0.72-2.73,1.59-4.05,2.45c-0.43,0.28-0.79,0.7-1.12,1.1
			c-0.34,0.41-0.2,1.12,0.29,1.37c0.54,0.27,1.12,0.51,1.71,0.6c1.86,0.3,3.7,0.09,5.45-0.56c1.89-0.7,3.74-1.52,5.6-2.3
			c2.27-0.95,4.5-2,6.8-2.86c3.24-1.21,6.62-1.76,10.08-1.64c1.13,0.04,2.29,0.18,3.38,0.46c2.11,0.54,2.4,1.86,0.79,3.41
			c-0.5,0.48-1.06,0.94-1.66,1.29c-1.53,0.86-3.05,1.77-4.66,2.44c-5.75,2.4-11.55,4.71-17.32,7.07c-1.79,0.73-3.6,1.42-5.32,2.29
			c-1,0.5-1.91,1.24-2.72,2.03c-0.75,0.73-0.47,1.97,0.49,2.43c0.54,0.26,1.17,0.46,1.76,0.44c1.66-0.03,3.36,0,4.97-0.33
			c8.56-1.74,16.41-5.1,23.33-10.5c0.83-0.65,1.65-1.32,2.49-1.95c0.35-0.26,0.74-0.48,1.14-0.66c0.72-0.33,1.43,0.12,1.49,0.94
			c0.03,0.43,0.05,0.9-0.07,1.31c-0.34,1.18-0.59,2.41-1.15,3.48c-3.97,7.65-10.05,12.74-18.48,14.88
			c-2.21,0.56-4.47,0.98-6.65,1.62c-1.33,0.39-2.63,0.98-3.84,1.67c-0.73,0.42-1.37,1.11-1.85,1.81c-0.81,1.19-0.42,2.48,0.87,3.06
			c0.71,0.32,1.5,0.5,2.27,0.62c3.43,0.52,6.64-0.17,9.65-1.85c3.38-1.88,6.59-4.03,9.69-6.35c2.96-2.21,5.96-4.35,8.96-6.49
			c0.78-0.56,1.64-1.03,2.51-1.44c0.91-0.43,1.79,0.13,1.85,1.16c0.03,0.6-0.01,1.24-0.18,1.82c-0.27,0.92-0.6,1.84-1.02,2.7
			c-2.88,5.89-7.09,10.7-12.49,14.35c-2.37,1.61-5.14,2.64-7.76,3.87c-1.51,0.71-3.12,1.22-4.59,1.99c-1.15,0.6-2.24,1.39-3.23,2.24
			c-0.87,0.75-1.44,1.77-1.6,2.95c-0.11,0.84,0.4,1.61,1.29,1.67c0.86,0.06,1.77,0.03,2.59-0.2c3.39-0.96,6.65-2.25,9.74-3.97
			c5.4-3,9.72-7.18,13.41-12.08c1.32-1.75,2.59-3.54,3.95-5.27c0.81-1.04,1.75-1.97,2.98-2.54c1.43-0.66,2.45-0.14,2.63,1.42
			c0.08,0.69,0.06,1.41-0.05,2.1c-0.58,3.76-1.66,7.36-3.34,10.78c-0.51,1.04-1.19,1.93-2.08,2.69c-2.13,1.83-4.22,3.71-6.39,5.5
			c-3.35,2.76-7.15,4.77-11.11,6.5c-2.25,0.99-4.54,1.88-6.81,2.84c-0.64,0.27-1.29,0.57-1.85,0.99c-0.85,0.64-0.61,2.01,0.39,2.34
			c0.57,0.19,1.2,0.26,1.81,0.29c1.96,0.11,3.85-0.27,5.71-0.84c2.97-0.9,5.72-2.29,8.23-4.08c4.01-2.85,7.93-5.82,11.92-8.7
			c1.49-1.08,3.03-2.1,4.6-3.07c0.66-0.41,1.43-0.66,2.17-0.92c0.79-0.27,1.56-0.14,2.28,0.28c0.65,0.38,1.08,0.92,0.99,1.72
			c-0.16,1.48-0.23,3.02-1.04,4.31c-1.45,2.3-2.89,4.62-4.54,6.78c-4.2,5.47-9.77,9.3-15.72,12.6c-2.22,1.23-4.58,2.23-6.86,3.36
			c-0.86,0.43-1.7,0.9-2.5,1.44c-0.2,0.14-0.32,0.66-0.22,0.91c0.1,0.26,0.52,0.57,0.79,0.56c0.78-0.05,1.59-0.13,2.32-0.4
			c2.46-0.92,4.99-1.74,7.32-2.94c3.72-1.92,7.59-3.2,11.73-3.71c1.48-0.18,2.93-0.56,4.41-0.79c0.78-0.12,1.58-0.19,2.36-0.13
			c1.83,0.15,2.99,1.82,2.36,3.57c-0.6,1.68-1.52,3.2-3.42,3.73c-1.86,0.52-3.71,1.07-5.59,1.52c-2.14,0.51-4.29,0.95-6.28,1.92
			c-0.47,0.23-0.95,0.46-1.38,0.76c-0.77,0.54-0.65,1.74,0.2,2.19c0.89,0.48,1.88,0.67,2.8,0.27c3.18-1.38,6.58-1.85,9.93-2.55
			c1.73-0.36,3.4-0.92,4.9-1.86c2.44-1.52,3.93-3.7,4.43-6.55c0.27-1.56-0.05-2.96-1.03-4.21c-1.84-2.33-4.09-3.83-7.2-3.65
			c-0.34,0.02-0.69,0-1.3,0c0.35-0.59,0.54-1.05,0.84-1.42c1.51-1.82,3.1-3.59,4.58-5.44c1.71-2.15,3.02-4.53,3.66-7.23
			c0.39-1.66,0.4-3.3-0.17-4.93c-1.14-3.24-3.46-4.97-6.83-5.36c-0.43-0.05-0.88,0-1.32-0.02c-1.46-0.06-2.24-0.96-1.97-2.41
			c0.22-1.21,0.59-2.39,0.86-3.58c0.38-1.66,0.27-3.31-0.23-4.94c-0.54-1.75-1.51-3.16-3.02-4.18c-0.51-0.34-1.04-0.66-1.56-0.99
			c-0.9-0.56-1.34-1.36-1.32-2.42c0.02-1.41-0.06-2.82,0.07-4.21c0.59-6.21,1.03-12.44,1.92-18.6c1.48-10.29,5.19-19.86,10.39-28.83
			c5.78-9.97,12.99-18.76,21.85-26.16c8.22-6.85,17.24-12.38,27.13-16.52c13.15-5.51,26.83-8.23,41.07-8.13
			c8.62,0.06,16.93,1.71,24.8,5.34c3.21,1.48,6.22,3.25,8.79,5.73c1.4,1.35,2.69,2.79,3.5,4.58c0.56,1.23,1.43,1.84,2.77,2.1
			c7.11,1.39,13.87,3.85,20.34,7.09c10.99,5.51,20.43,12.96,28.18,22.54c3.54,4.38,6.85,8.9,9.38,13.97
			c2.55,5.09,4.13,10.44,4.55,16.12c0.38,5.05-0.75,9.77-3.14,14.21c-0.84,1.56-1.95,2.92-3.23,4.14c-1.98,1.88-4.34,2.95-7.05,3.25
			c-0.77,0.09-1.55,0.17-2.27,0.24c-0.67,1.15-0.66,2.32-0.84,3.43c-0.43,2.61-1.06,5.16-2.06,7.61c-0.9,2.22-2.1,4.27-3.69,6.05
			c-6.89,7.71-15.76,6.14-21.2,0.23c-1.74-1.89-2.98-4.12-3.87-6.54c-0.27-0.73-0.56-1.45-0.83-2.13c-0.94,0.02-1.02,0.75-1.31,1.24
			c-1.85,3.06-4.46,5.21-7.82,6.34c-3.98,1.33-7.96,1.17-11.84-0.49c-1.87-0.8-3.52-1.98-5.04-3.32c-1.41-1.25-2.42-2.8-3-4.58
			c-0.9-2.75-1.75-5.52-2.56-8.3c-0.76-2.61-1.44-5.25-2.19-7.87c-0.51-1.79-1.33-3.43-2.31-5c-1.11-1.78-2.64-3.03-4.55-3.84
			c-5.78-2.44-11.75-3.5-18.02-2.63c-4.57,0.63-8.9,1.98-13.03,4.04c-4.88,2.44-8.95,5.85-12.31,10.12
			c-5.05,6.41-8.2,13.67-9.79,21.64c-0.17,0.84-0.36,1.68-0.58,2.67c-0.64-0.1-1.15-0.13-1.63-0.25c-0.94-0.24-1.85-0.6-2.79-0.77
			c-1.75-0.32-2.97-1.09-3.75-2.84c-1.34-2.98-4.62-4.17-8.6-3.44c-0.26,0.05-0.53,0.11-0.75,0.23c-1.68,0.93-3.33,0.62-5.08,0.14
			c-2.54-0.69-5.15-1.11-7.71-1.72c-4.1-0.98-8.18-2.02-12.28-3.02c-0.92-0.23-1.83-0.67-2.99-0.23c0.25,0.37,0.39,0.81,0.69,1
			c0.66,0.41,1.38,0.78,2.13,1c6.98,2.09,13.97,4.14,20.96,6.21c1.29,0.38,2.55,0.41,3.89,0.13c1.36-0.29,2.78-0.33,4.18-0.34
			c1.41-0.01,2.68,0.61,3.22,1.91c0.79,1.88,2.35,2.48,4.06,3c6.98,2.1,13.97,4.18,20.94,6.31c9.24,2.82,18.47,5.68,27.71,8.51
			c1.42,0.43,2.86,0.81,4.27,1.21c1.91-1.54,3.75-2.91,6.29-1.91c2.23,0.88,3.63,2.41,3.84,4.88c1.41,0.45,2.65,0.87,3.9,1.25
			c2.26,0.7,4.53,1.4,6.8,2.09c1.89,0.58,3.81,0.57,5.74,0.19c1.55-0.31,3.08-0.72,4.63-1c1.2-0.22,2.44-0.48,3.65-0.45
			c4.56,0.11,9.14-0.11,13.68,0.57c2.35,0.35,4.68,0.77,6.92,1.6c1.58,0.58,3.04,1.36,4.3,2.51c2.75,2.51,3.21,5.6,1.29,8.77
			c-0.88,1.44-1.98,2.7-3.36,3.67c-2.16,1.52-4.46,2.26-7.19,1.59c-5.3-1.31-10.48-2.97-15.54-4.98c-3.36-1.34-6.48-3.18-9.17-5.63
			c-1.94-1.76-4.14-2.91-6.63-3.62c-2.96-0.84-5.9-1.74-8.83-2.67c-1.02-0.32-1.81-0.21-2.68,0.47c-1.62,1.27-2.93,2.73-3.85,4.59
			c-0.66,1.33-1.46,2.6-2.29,3.84c-3.82,5.65-9.1,9.46-15.43,11.84c-3.12,1.17-6.28,2.27-9.63,2.64c-0.69,0.08-1.38,0.27-2.05,0.46
			c-2.41,0.7-3.58,2.4-3.79,4.83c-0.15,1.69,0.14,3.35,0.72,4.92c1.57,4.21,3.56,8.22,6.1,11.93c1.17,1.72,2.31,2.69,3.94,3.56
			c0.26-2.63-1.86-4.42-2.35-6.96c0.56,0.12,0.9,0.12,1.17,0.26c3.8,2.02,7.62,4.01,11.36,6.12c1.29,0.72,2.52,1.64,3.56,2.68
			c2.17,2.17,1.88,5.01-0.65,6.76c-0.92,0.64-2.01,1.1-3.08,1.43c-3.4,1.07-6.89,1.33-10.42,0.9c-4.98-0.61-9.86-1.65-14.56-3.48
			c-4.99-1.94-10.05-3.67-14.95-5.87c-6.91-3.11-12.35-7.97-17.11-13.71c-0.67-0.8-1.25-1.71-1.72-2.65
			c-1.37-2.76-0.22-4.92,2.81-5.37c0.26-0.04,0.53-0.04,0.79-0.02c0.26,0.02,0.51,0.11,0.91,0.2c0.11,0.44,0.26,0.92,0.35,1.41
			c0.25,1.29,0.45,2.59,0.71,3.88c0.24,1.16,0.91,2.03,2,2.77c0.11-0.36,0.28-0.59,0.23-0.78c-1.05-4.56-0.47-9.09,0.16-13.62
			c0.07-0.52,0.17-1.04,0.24-1.56c0.24-1.79,0.03-3.51-0.85-5.11c-1.61-2.92-3.14-5.89-4.86-8.75c-1.19-1.97-2.19-3.99-3.08-6.1
			c-1.64-3.88-1.9-7.79-0.75-11.85c0.81-2.87,1.52-5.77,2.2-8.68c0.24-1.01,0.33-2.07,0.33-3.11c0-0.95-0.52-1.66-1.49-1.95
			c-0.34-0.1-0.66-0.24-1-0.35c-7.4-2.22-14.8-4.45-22.2-6.65c-0.92-0.27-1.88-0.45-2.84-0.57c-0.35-0.04-0.74,0.21-1.41,0.42
			c0.64,0.53,0.98,0.93,1.41,1.14c1.82,0.87,3.63,1.78,5.52,2.49c4.86,1.8,9.75,3.5,14.63,5.24c1.06,0.38,2.11,0.78,3.23,1.19
			c0.06,1.74-0.3,3.27-0.73,4.77c-1.06,3.73-1.63,7.54-1.98,11.4c-0.2,2.25,0.14,4.36,1.03,6.42c1.09,2.51,2.47,4.85,4.14,7.02
			c1.89,2.44,3.37,5.13,4.82,7.85c1.36,2.54,1.62,5.14,0.59,8.05c-0.47-0.08-0.97-0.09-1.42-0.26c-4.94-1.82-9.87-3.7-14.83-5.49
			c-1.9-0.68-3.84-1.24-5.79-1.75c-0.91-0.24-2.08-0.58-2.74,0.25c-0.8,1.01,0.1,2.02,0.66,2.84c1.18,1.74,2.4,3.47,3.76,5.08
			c6.46,7.59,13.71,14.34,21.61,20.41c1.46,1.12,2.93,2.24,4.37,3.39c0.67,0.54,1.27,1.16,2.28,2.08c-0.89-0.08-1.34,0-1.65-0.17
			c-2.23-1.22-4.54-2.33-6.63-3.76c-7.5-5.13-14.31-11.06-20.36-17.85c-0.41-0.46-0.81-0.92-1.2-1.4c-2.3-2.79-4.42-5.68-5.14-9.27
			c-0.62-0.09-0.75,0.28-0.73,0.6c0.09,1.48,0.06,3,0.41,4.43c1,4.13,2.62,8.06,4.99,11.56c4.24,6.26,8.95,12.15,14.66,17.19
			c9.27,8.19,19.32,15.2,30.4,20.71c8.08,4.02,16.68,6.49,25.55,7.98c6.07,1.02,12.18,1.68,18.34,1.75
			c4.4,0.05,8.77-0.31,13.12-1.01c3.69-0.59,7.09-1.98,10.39-3.65c1.6-0.81,2.86-2.02,4.02-3.35c0.64-0.74,0.74-1.6,0.19-2.43
			c-0.49-0.73-0.99-1.47-1.61-2.07c-0.94-0.91-1.95-1.78-3.01-2.55c-4.19-3.05-8.44-6.01-12.96-8.58
			c-6.95-3.96-13.83-8.02-20.83-11.88c-4.46-2.46-9.02-4.75-13.63-6.89c-2.05-0.95-3.19-2.25-3.53-4.45
			c-0.33-2.17-0.92-4.29-1.28-6.45c-0.26-1.55,0.1-2.04,1.53-2.62c0.32-0.13,0.66-0.23,0.99-0.35c1.24-0.46,2.31-0.22,3.48,0.45
			c2.89,1.66,5.8,3.31,8.84,4.67c6.96,3.11,14.28,4.85,21.93,5.14c2.37,0.09,4.73,0.3,7.1,0.43c7.45,0.39,14.68-0.84,21.87-2.68
			c7.4-1.89,14.76-3.93,22.29-5.29c2.6-0.47,5.23-0.65,7.87-0.43c2.19,0.18,4.06,1.08,5.65,2.55c2.15,1.99,2.34,3.95,0.54,6.27
			c-2.47,3.2-5.56,5.59-9.34,7.05c-3.61,1.4-7.34,2.43-11.13,3.2c-2.41,0.49-4.85,0.8-7.28,1.18c-0.78,0.12-1.57,0.18-2.35,0.31
			c-0.34,0.06-0.68,0.18-0.98,0.34c-0.36,0.19-0.63,1.12-0.38,1.42c0.2,0.23,0.56,0.46,0.85,0.45c0.96-0.02,1.93-0.12,2.89-0.22
			c6.23-0.68,12.26-2.23,18.17-4.28c3.9-1.35,7.75-2.83,11.66-4.16c1.99-0.67,4.03-1.29,6.09-1.65c2.51-0.43,4.7,0.43,6.3,2.46
			c1.11,1.4,1.46,2.96,0.79,4.7c-0.71,1.84-1.73,3.4-3.37,4.59c-6.32,4.61-13.18,8.04-20.87,9.69c-1.4,0.3-1.4,0.33-2.53,1.21
			c0.07,1.07,0.71,1.61,1.71,1.59c0.96-0.02,1.92-0.17,2.87-0.34c8.27-1.51,15.69-4.99,22.51-9.83c1.26-0.89,2.13-2.04,2.8-3.42
			c0.99-2.03,1.32-4.18,1.32-6.39c0-2.03-0.71-3.78-2.29-5.12c-0.47-0.4-0.92-0.82-1.41-1.18c-3.14-2.29-5.82-5.07-8.57-7.79
			c-2.08-2.05-3.69-4.46-5.27-6.89c-0.33-0.51-0.59-1.09-0.77-1.67c-0.38-1.24,0.09-2.15,1.33-2.37c1.02-0.18,2.14-0.34,3.12-0.12
			c3.76,0.85,7.53,1.75,11.21,2.87c1.73,0.53,3.32,1.58,4.92,2.49c2.75,1.57,5.53,3.08,8.58,3.98c0.57,0.17,1.19,0.22,1.79,0.22
			c0.52,0,0.84-0.86,0.45-1.21c-0.51-0.46-1.07-0.9-1.67-1.25c-1.9-1.1-3.82-2.16-5.74-3.23c-4.33-2.41-8.15-5.5-11.75-8.87
			c-2.72-2.54-4.91-5.5-6.75-8.72c-0.52-0.92-0.92-1.92-1.52-2.77c-1.31-1.84-1.42-3.93-1.43-6.04c0-1.24,0.55-1.69,1.81-1.72
			c1.09-0.02,2.11,0.28,2.99,0.89c1.59,1.1,3.17,2.21,4.66,3.44c3.18,2.63,6.25,5.4,9.46,7.99c1.97,1.6,4.06,3.08,6.21,4.44
			c2.7,1.7,5.66,2.82,8.86,3.14c0.86,0.09,1.74-0.02,2.6-0.15c0.54-0.08,0.93-0.49,1-1.08c0.07-0.56-0.1-1.07-0.57-1.39
			c-0.58-0.39-1.2-0.72-1.83-1.03c-2.04-1.02-4.1-2-6.14-3.04c-4.72-2.41-9.11-5.3-12.81-9.14c-1.16-1.2-2.33-2.4-3.56-3.52
			c-1.41-1.27-2.34-2.82-2.97-4.59c-1.06-2.99-1.81-6.06-2.11-9.22c-0.1-1.03-0.03-2.11,0.15-3.13c0.17-0.98,1.15-1.47,2.03-1.02
			c0.84,0.44,1.69,0.98,2.31,1.68c1.03,1.18,1.91,2.51,2.8,3.81c1.5,2.17,2.88,4.42,4.45,6.53c4.87,6.54,11.34,10.93,18.9,13.77
			c0.89,0.33,1.87,0.54,2.81,0.6c1.26,0.08,1.95-0.82,1.7-2.06c-0.32-1.53-1.16-2.78-2.4-3.67c-1.35-0.96-2.8-1.81-4.26-2.6
			c-1.78-0.96-3.61-1.81-5.42-2.7c-4.45-2.17-7.85-5.58-10.87-9.4c-2.02-2.56-3.73-5.33-4.91-8.38c-0.35-0.9-0.67-1.82-0.87-2.76
			c-0.14-0.67-0.13-1.4-0.04-2.09c0.11-0.87,1.01-1.34,1.79-0.92c0.85,0.45,1.68,0.97,2.43,1.57c2.87,2.32,5.66,4.73,8.55,7.03
			c2.81,2.24,5.67,4.43,8.57,6.56c1.93,1.41,4.1,2.38,6.48,2.81c1.84,0.33,3.68,0.37,5.49-0.1c2.02-0.52,2.56-2.1,1.35-3.81
			c-0.84-1.18-2.02-1.97-3.32-2.52c-1.53-0.65-3.12-1.17-4.7-1.7c-1.17-0.39-2.36-0.69-3.54-1.04c-5.86-1.74-10.47-5.27-14.15-10.05
			c-1.56-2.02-2.78-4.26-3.71-6.66c-0.51-1.33-0.77-2.7-0.63-4.13c0.1-1,0.85-1.44,1.65-0.9c0.8,0.53,1.57,1.13,2.26,1.8
			c5.68,5.46,12.41,9.16,19.77,11.79c2.06,0.74,4.21,1.23,6.36,1.68c1.1,0.23,2.27,0.14,3.41,0.1c0.85-0.03,1.53-0.46,1.81-1.3
			c0.26-0.76-0.1-1.4-0.65-1.88c-0.73-0.63-1.47-1.28-2.29-1.75c-1.44-0.83-2.95-1.55-4.45-2.28c-5.85-2.84-11.73-5.61-17.54-8.52
			c-1.79-0.9-3.46-2.08-5.09-3.26c-0.68-0.49-1.2-1.27-1.66-2c-0.39-0.62-0.07-1.53,0.62-1.77c0.9-0.31,1.86-0.56,2.8-0.61
			c3.1-0.18,6.13,0.32,9.08,1.26c2.77,0.89,5.36,2.2,7.92,3.56c2.02,1.07,4.03,2.14,6.1,3.12c1.84,0.87,3.81,1.4,5.87,1.21
			c0.68-0.06,1.36-0.29,2-0.55c0.5-0.2,0.64-0.93,0.33-1.36c-0.26-0.35-0.53-0.71-0.87-0.97c-1.04-0.8-2.07-1.64-3.19-2.32
			c-7.45-4.47-14.82-9.11-22.82-12.6c-0.72-0.31-1.44-0.66-2.11-1.08c-0.59-0.37-1.17-0.8-1.63-1.31c-1.13-1.26-0.89-2.46,0.62-3.17
			c1.81-0.85,3.74-0.94,5.68-0.62c2.96,0.49,5.83,1.33,8.5,2.72c1.71,0.9,3.34,1.94,5.04,2.86c2.47,1.33,4.95,2.65,7.48,3.87
			c1.18,0.57,2.48,0.91,3.83,0.86c1.02-0.04,1.94-0.3,2.36-1.34c0.41-1.01,0.06-1.89-0.63-2.66c-1.25-1.4-2.83-2.36-4.5-3.16
			c-3.88-1.86-7.78-3.69-11.68-5.51c-2.71-1.27-5.4-2.59-7.69-4.54c-0.92-0.78-1.69-1.77-2.42-2.74c-0.2-0.27-0.18-0.84-0.03-1.19
			c0.08-0.2,0.62-0.35,0.92-0.3c1.04,0.17,2.08,0.35,3.08,0.67c4.02,1.27,8.03,2.58,12.03,3.89c1.84,0.6,3.64,1.31,5.48,1.89
			c1.17,0.37,2.37,0.64,3.58,0.85c0.68,0.12,1.41,0.09,2.09-0.02c1.17-0.19,1.73-1.4,1.1-2.41c-0.31-0.5-0.77-0.99-1.29-1.27
			c-1.15-0.62-2.36-1.18-3.59-1.63c-3.38-1.23-6.81-2.35-10.18-3.6c-1.72-0.64-3.4-1.44-5.04-2.27c-1.66-0.84-3.1-2.01-4.27-3.46
			c-0.38-0.47-0.71-1-0.94-1.56c-0.35-0.83,0.11-1.59,1-1.77c1.32-0.27,2.63-0.16,3.9,0.27c1.83,0.62,3.65,1.26,5.46,1.94
			c3.21,1.2,6.39,2.5,9.75,3.21c1.19,0.25,2.43,0.34,3.65,0.45c0.43,0.04,0.88-0.04,1.3-0.15c0.98-0.25,1.37-1.3,0.74-2.05
			c-0.39-0.46-0.87-0.89-1.39-1.17c-0.93-0.5-1.9-0.91-2.88-1.28c-2.96-1.12-5.93-2.19-8.88-3.32c-2.48-0.95-4.78-2.23-6.65-4.17
			c-0.39-0.41-0.66-0.95-1.14-1.66c0.84-0.17,1.41-0.36,1.98-0.38c3.02-0.09,5.94,0.54,8.85,1.22c1.63,0.38,3.24,0.78,4.88,1.14
			c1.48,0.32,2.97,0.31,4.44-0.08c0.47-0.12,0.89-0.44,1.56-0.79c-0.47-0.44-0.71-0.83-1.05-0.97c-1.15-0.44-2.32-0.81-3.49-1.16
			c-3.95-1.2-7.91-2.37-11.85-3.58c-1-0.31-2-0.68-2.95-1.12c-0.71-0.33-1.38-0.76-2.02-1.22c-0.51-0.36-0.9-0.87-0.8-1.56
			c0.11-0.73,0.71-0.93,1.31-1.12c1.99-0.63,4-0.54,5.99-0.1c1.28,0.28,2.52,0.77,3.77,1.16c1.59,0.5,3.17,1.03,4.78,1.48
			c1.48,0.41,2.97,0.26,4.41-0.24c0.51-0.18,1-0.53,0.92-1.13c-0.05-0.39-0.29-0.9-0.6-1.08c-0.75-0.43-1.57-0.8-2.4-1
			c-1.71-0.41-3.44-0.69-5.17-1.03c-2.17-0.43-4.26-1.12-6.15-2.27c-0.77-0.47-2.03-0.89-1.62-2.07c0.32-0.92,1.51-0.79,2.34-0.75
			c3.24,0.14,6.49,0.37,9.73,0.59c1.03,0.07,2.06,0.28,2.94-0.04c0.38-0.71,0.09-1.12-0.26-1.32c-0.75-0.42-1.54-0.87-2.37-1.04
			c-1.37-0.28-2.8-0.28-4.18-0.5c-1.64-0.27-3.27-0.6-4.88-1.02c-1.22-0.32-2.18-1.11-2.94-2.13c-0.74-0.99-0.38-1.99,0.81-2.12
			c0.87-0.09,1.76-0.1,2.63-0.02c2.45,0.23,4.89,0.53,7.33,0.8c0.76,0.08,1.53,0.33,2.25-0.03c0.2-0.67-0.27-0.89-0.62-1.07
			c-1.5-0.73-3.04-1.38-4.53-2.13c-1.72-0.87-3.42-1.78-5.1-2.73c-0.39-0.22-0.63-0.71-1.09-1.25c1.23-0.56,2.26-0.37,3.27-0.29
			c0.96,0.08,1.92,0.21,2.89,0.27c1.02,0.07,2.06,0.23,2.98,0.01c0.28-0.62-0.03-0.85-0.34-0.99c-0.88-0.39-1.8-0.7-2.68-1.1
			c-1.2-0.54-2.41-1.06-3.54-1.73c-0.81-0.48-1.65-1.04-1.81-2.26c2.32-1.18,4.77,0.22,7.33-0.32c-0.85-1.1-1.98-1.37-2.96-1.86
			c-0.93-0.47-1.89-0.87-2.78-1.27c-0.02-0.78,0.48-0.78,0.88-0.83c1.11-0.12,2.22-0.2,3.28-0.28c0.23-0.74-0.24-0.94-0.6-1.13
			c-1.09-0.57-2.22-1.07-3.3-1.64c-0.56-0.29-1.03-0.69-0.89-1.44c0.75-0.99,2.01-0.42,2.89-0.93c0.51-0.58,0.29-1.16,0.08-1.74
			c-0.39-1.07-0.83-2.13-1.15-3.22c-0.17-0.57-0.18-1.22-0.12-1.82c0.03-0.28,0.35-0.66,0.62-0.76c0.27-0.1,0.78-0.02,0.94,0.18
			c0.7,0.89,1.47,1.78,1.91,2.79c0.67,1.52,1.19,3.12,1.59,4.73c0.59,2.36,1.7,3.06,4.32,2.08c1.2-0.45,2.02-1.37,2.85-2.27
			c0.31-0.33,0.76-0.61,1.14-0.26c0.28,0.26,0.57,0.81,0.47,1.1c-0.27,0.82-0.67,1.61-1.13,2.34c-0.56,0.89-1.28,1.68-1.83,2.57
			c-0.63,1.02-0.6,1.88-0.06,2.43c0.54,0.55,1.51,0.66,2.44,0.11c0.75-0.44,1.41-1.04,2.1-1.57c0.77-0.59,1.5-1.21,2.3-1.75
			c0.36-0.24,0.84-0.27,1.21,0.1c0.37,0.37,0.3,0.82,0.09,1.22c-0.29,0.54-0.61,1.07-1,1.54c-1.06,1.29-2.17,2.54-3.23,3.82
			c-0.5,0.6-1.02,1.21-1.38,1.9c-0.16,0.31-0.09,0.88,0.09,1.21c0.28,0.5,0.86,0.67,1.38,0.41c0.7-0.35,1.4-0.74,1.99-1.25
			c0.72-0.63,1.34-1.39,1.97-2.12c0.8-0.93,1.59-1.87,2.72-2.48c1.17,0.22,1.59,0.97,1.61,2.06c0.02,0.93-0.37,1.72-0.9,2.42
			c-0.69,0.91-1.48,1.74-2.15,2.66c-0.46,0.63-0.87,1.32-1.14,2.04c-0.12,0.33,0.05,0.87,0.27,1.2c0.33,0.5,0.94,0.52,1.43,0.29
			c0.62-0.3,1.22-0.69,1.75-1.13c0.61-0.5,1.1-1.13,1.7-1.65c0.46-0.39,0.97-0.77,1.52-1.01c0.98-0.43,2.02,0.35,1.93,1.43
			c-0.11,1.24-0.41,2.43-1.31,3.37c-1.46,1.52-2.9,3.06-4.39,4.54c-0.93,0.93-1.98,1.74-2.9,2.68c-0.54,0.55-1.02,1.22-1.34,1.92
			c-0.5,1.07,0.36,2.17,1.55,2.09c1.18-0.08,2.24-0.58,3.11-1.32c1.73-1.48,3.38-3.05,5.04-4.62c0.57-0.54,1.03-1.2,1.6-1.75
			c0.83-0.79,1.81-1.07,2.9-0.57c1.08,0.49,1.54,1.39,1.55,2.54c0.02,1.75-0.58,3.24-1.81,4.51c-2.56,2.67-5.2,5.23-8.19,7.42
			c-0.99,0.73-1.99,1.46-2.87,2.31c-0.55,0.53-1.02,1.22-1.31,1.93c-0.52,1.26,0.3,2.52,1.66,2.7c1.29,0.18,2.42-0.29,3.48-0.96
			c1.44-0.9,2.52-2.17,3.57-3.48c1.32-1.65,2.66-3.27,4-4.9c0.81-0.98,1.8-1.64,3.1-1.83c1.98-0.29,3.45,0.95,3.44,2.95
			c0,1.09-0.35,2.08-1.02,2.93c-0.32,0.41-0.69,0.8-1.09,1.14c-3.49,2.94-6.75,6.16-10.54,8.74c-0.36,0.25-0.72,0.51-1.05,0.79
			c-0.41,0.35-0.76,0.78-0.48,1.36c0.29,0.6,0.83,0.57,1.35,0.36c1.14-0.46,2.3-0.89,3.39-1.44c2.12-1.07,4.18-2.25,6.3-3.3
			c1.01-0.5,2.08-1.01,3.17-1.2c2.85-0.5,4.48,1.35,3.54,4.09c-1.02,2.97-2.78,5.49-5.43,7.26c-1.24,0.83-2.54,1.6-3.9,2.18
			c-2.99,1.27-6.03,2.42-9.21,3.1c-0.96,0.21-1.9,0.45-2.6,1.16c-0.21,0.21-0.38,0.68-0.29,0.93c0.13,0.36,0.46,0.76,0.81,0.9
			c0.36,0.15,0.85,0.05,1.27-0.02c2.59-0.46,5.17-0.98,7.77-1.43c3.13-0.54,6.15-1.44,9.05-2.75c1.28-0.58,2.55-1.18,3.86-1.69
			c0.73-0.28,1.51-0.47,2.29-0.55c0.89-0.1,1.49,0.41,1.72,1.28c0.42,1.6,0.22,3.13-0.52,4.6c-1.12,2.2-2.84,3.76-5.01,4.88
			c-2.37,1.22-4.95,1.8-7.54,2.28c-3.02,0.57-6.07,1-9.08,1.59c-1.46,0.28-2.9,0.71-4.29,1.23c-0.61,0.23-1.2,0.75-1.61,1.28
			c-0.75,0.97-0.2,2.26,1,2.34c0.86,0.06,1.78,0,2.59-0.26c2.61-0.86,5.3-1.16,8.01-1.47c2.61-0.3,5.19-0.84,7.79-1.29
			c1.73-0.3,3.44-0.7,5.18-0.9c0.94-0.11,1.95-0.03,2.87,0.21c1.78,0.47,2.43,2.08,1.57,3.7c-1.09,2.05-2.61,3.73-4.49,5.1
			c-3.5,2.56-7.48,3.8-11.72,4.36c-3.22,0.42-6.49,0.43-9.64,1.31c-0.68,0.19-1.36,0.34-2.02,0.58c-0.32,0.11-0.62,0.33-0.86,0.57
			c-0.64,0.64-0.3,1.96,0.58,2.13c0.51,0.1,1.07,0.15,1.56,0.03c2.74-0.67,5.53-0.91,8.34-1.13c2.71-0.21,5.4-0.7,8.09-1.09
			c1.48-0.21,2.94-0.35,4.45-0.1c0.93,0.16,1.92-0.06,2.89-0.04c1.31,0.03,2.65-0.02,3.93,0.24c2.36,0.47,3.22,2.65,1.85,4.6
			c-0.65,0.92-1.43,1.81-2.33,2.49c-1.32,1.01-2.71,1.99-4.21,2.67c-4.65,2.11-9.46,3.78-14.62,4.15c-2.28,0.16-4.55,0.34-6.82,0.55
			c-0.78,0.07-1.58,0.16-2.32,0.4c-0.34,0.11-0.7,0.54-0.82,0.91c-0.19,0.56,0.18,1.04,0.67,1.29c0.54,0.27,1.13,0.49,1.72,0.63
			c2.76,0.62,5.54,0.95,8.37,0.62c3.5-0.41,6.93-1.11,10.26-2.31c1.65-0.59,3.36-1.05,5.07-1.4c1.19-0.24,2.45-0.33,3.66-0.27
			c1.89,0.11,3.01,1.59,2.67,3.46c-0.14,0.76-0.46,1.52-0.83,2.2c-1.85,3.39-4.76,5.59-8.28,6.99c-3.45,1.38-7.1,1.94-10.74,2.57
			c-3.83,0.66-7.68,0.79-11.55,0.7c-1.67-0.04-3.34,0-5.01,0.05c-0.7,0.02-1.39,0.15-2.08,0.3c-0.56,0.12-0.9,0.53-1,1.1
			c-0.11,0.62,0.17,1.25,0.77,1.53c0.55,0.25,1.15,0.49,1.74,0.55c3.23,0.36,6.45,0.69,9.71,0.13c2.76-0.48,5.57-0.73,8.35-1.1
			c0.61-0.08,1.21-0.19,1.82-0.3c2.66-0.52,5.32-1.08,8-1.56c0.85-0.15,1.76-0.21,2.62-0.1c2.46,0.32,3.59,2.37,2.58,4.64
			c-0.97,2.17-2.63,3.74-4.71,4.79c-0.87,0.44-1.66,0.87-2.38,1.55c-0.68,0.65-1.55,1.13-2.41,1.54c-3.63,1.73-7.53,2.36-11.49,2.58
			c-2.98,0.17-5.97,0.09-8.95,0.17c-2.37,0.06-4.74,0.12-7.1,0.32c-1.12,0.1-2.23,0.47-3.29,0.85c-0.3,0.1-0.63,0.7-0.58,1.02
			c0.05,0.3,0.58,0.74,0.9,0.74c1.22,0.01,2.48,0.03,3.65-0.26c4.54-1.11,9.06-1.04,13.58-0.05c2.67,0.58,5.36,0.96,8.08,1.15
			c1.94,0.14,3.83,0.5,5.63,1.25c1.26,0.52,1.26,0.52,2.48,2.04c-0.25,0.38-0.48,0.84-0.81,1.22c-1.81,2.11-4.07,3.58-6.61,4.68
			c-3.58,1.55-7.34,2.42-11.22,2.69c-4.47,0.3-8.95,0.43-13.42,0.65c-1.4,0.07-2.81,0.15-4.21,0.28c-0.51,0.05-1.05,0.17-1.51,0.39
			c-1.06,0.5-1.19,1.96-0.21,2.59c0.58,0.37,1.26,0.63,1.92,0.81c2.46,0.67,4.96,1.2,7.53,1.13c3.33-0.08,6.67-0.25,10-0.39
			c0.88-0.04,1.75-0.11,2.63-0.14c2.37-0.09,4.73-0.24,7.05-0.82c1.65-0.42,2.79,0.73,2.34,2.38c-0.27,0.99-0.77,1.96-1.32,2.84
			c-0.86,1.35-2.12,2.33-3.44,3.22c-3.71,2.53-7.83,3.91-12.27,4.39c-5.71,0.61-11.4,0.37-17.09-0.25
			c-1.04-0.11-2.09-0.11-3.14-0.09c-0.19,0-0.48,0.3-0.53,0.51c-0.05,0.2,0.08,0.56,0.25,0.67c0.52,0.32,1.1,0.54,1.65,0.81
			c2.13,1.04,4.26,2.08,6.39,3.12c4.24,2.07,7.72,5.17,11.25,8.2c0.27,0.23,0.52,0.48,0.73,0.76c1.18,1.61,1.39,2.71-1.12,3.32
			c-6.66,1.63-13.08,1.08-19.21-2.03c-2.5-1.27-4.93-2.69-7.42-4.01c-0.69-0.36-1.44-0.65-2.2-0.85c-0.7-0.18-1.46,0.26-1.77,0.86
			c-0.33,0.62-0.2,1.39,0.36,1.92c0.32,0.3,0.67,0.56,1.03,0.82c2.29,1.63,4.59,3.24,6.88,4.87c2.51,1.78,5.07,3.48,7.48,5.39
			c1.71,1.36,3.29,2.92,4.76,4.53c0.87,0.95,1.51,2.15,2.08,3.33c1.12,2.34-0.32,4.72-2.86,5.05c-2.1,0.28-4.2,0.31-6.27-0.22
			c-0.93-0.24-1.88-0.47-2.77-0.83c-3.33-1.36-6.73-2.57-9.84-4.41c-1.06-0.62-2.18-1.14-3.3-1.63c-2.05-0.89-4.19-1.24-6.43-1
			c-1.22,0.13-2.45,0.24-3.68,0.23c-1.4-0.01-2.05-1.04-1.52-2.34c0.23-0.57,0.54-1.11,0.88-1.61c1.15-1.66,2.24-3.38,3.52-4.92
			c3.04-3.67,5.71-7.6,7.92-11.8c6.33-12.05,12.51-24.2,17.26-36.97c2.94-7.89,5.88-15.8,7.87-24.01c2.34-9.65,4.3-19.37,5.77-29.19
			c0.81-5.4,1-10.84,1.24-16.28c0.23-5.26,0.37-10.53,0.51-15.8c0.12-4.66-0.14-9.31-0.67-13.94c-0.45-3.92-0.97-7.85-1.69-11.72
			c-1.2-6.49-3.36-12.72-5.45-18.97c-0.14-0.41-0.39-0.77-0.88-1.71c0.08,0.97,0.05,1.34,0.14,1.68c1.98,7.13,3.31,14.37,3.85,21.75
			c0.2,2.71,0.47,5.42,0.78,8.13c0.53,4.72,0.84,9.45,0.73,14.2c-0.24,10.81-0.75,21.6-2.08,32.33c-0.55,4.43-1.54,8.82-2.45,13.2
			c-1.35,6.44-2.79,12.87-4.24,19.29c-0.41,1.8-0.93,3.57-1.5,5.32c-5.25,16.17-12.06,31.66-20.37,46.49
			c-1.29,2.3-2.42,4.68-3.59,7.04c-3.41,6.86-7.31,13.4-12.11,19.41c-4.84,6.06-10.56,11.02-17.45,14.6
			c-0.62,0.32-1.25,0.64-1.84,1.03c-6.28,4.18-13.22,6.86-20.41,8.99c-0.84,0.25-1.66,0.55-2.46,0.89
			c-0.15,0.06-0.29,0.46-0.24,0.63c0.06,0.19,0.37,0.43,0.56,0.42c0.7-0.03,1.39-0.18,2.08-0.24c9.88-0.95,18.65-4.76,26.65-10.49
			c2.71-1.94,5.36-3.98,8-6.02c3.07-2.38,6.29-4.5,9.86-6.03c2.4-1.04,4.9-1.35,7.47-0.76c1.96,0.45,3.61,1.33,4.62,3.17
			c0.42,0.77,0.93,1.49,1.38,2.25c2.38,4.07,2.31,8.24,0.15,12.31c-0.98,1.84-2.22,3.6-3.61,5.16c-3.09,3.49-6.54,6.62-10.18,9.54
			c-9.9,7.96-20.54,14.74-31.87,20.46c-14.77,7.45-30.35,12.48-46.56,15.62c-15.11,2.93-30.35,3.4-45.66,2.29
			c-16.14-1.16-31.76-4.77-46.96-10.26c-12.62-4.56-24.43-10.74-35.67-18.02c-6.13-3.97-11.92-8.39-17.53-13.06
			c-0.4-0.34-0.81-0.67-1.18-1.05c-4.75-4.94-9.51-9.88-13.38-15.57c-1.68-2.47-3.3-4.98-4.89-7.5c-0.9-1.42-1.47-2.98-1.82-4.63
			c-0.75-3.47-0.02-6.61,1.92-9.53c0.55-0.83,1.25-1.42,2.18-1.82c3.14-1.32,6.3-1.46,9.5-0.28c2.08,0.77,3.95,1.89,5.69,3.26
			c2.22,1.75,4.11,3.83,5.92,5.98c8.02,9.56,17.51,17.48,27.67,24.64c3.89,2.74,8.11,4.94,12.58,6.56
			c5.94,2.16,11.92,4.22,17.89,6.28c0.72,0.25,1.53,0.36,2.3,0.34c0.76-0.02,1.12-1.09,0.56-1.6c-0.51-0.46-1.1-0.86-1.73-1.14
			c-2.16-0.97-4.36-1.85-6.53-2.83c-3.36-1.51-6.72-3.03-10.05-4.61c-4.63-2.19-8.91-4.95-12.81-8.27
			c-4.08-3.47-8.11-7.01-12.03-10.65c-3.92-3.65-7.67-7.48-11.51-11.22c-1.01-0.98-2-1.99-3.08-2.87c-2.33-1.9-4.28-4.15-6.09-6.54
			c-3.93-5.21-7.33-10.74-9.99-16.7c-4.18-9.39-8.37-18.77-12.37-28.23c-4.62-10.94-8.14-22.27-10.95-33.8
			c-1.02-4.17-1.59-8.45-2.25-12.71c-0.9-5.81-1.67-11.65-2.53-17.47c-0.6-4.09-0.83-8.21-0.92-12.34
			c-0.21-9.49-0.16-18.97,0.37-28.45c0.23-4.13,0.78-8.22,1.46-12.29c0.61-3.64,1.21-7.28,1.79-10.92
			c0.77-4.87,1.84-9.66,3.36-14.35c0.51-1.58,0.97-3.17,1.55-5.02c0.09-0.39,0.08-0.52,0.07-0.65c-0.07,0.12-0.15,0.23-0.19,0.36
			C207.45,255.53,207.54,255.62,207.58,255.69z M429.26,451.61c-1.25,0.4-2.49,0.84-3.76,1.19c-9.92,2.74-20.03,4.42-30.23,5.68
			c-3.05,0.38-6.11,0.61-9.16,0.92c-0.61,0.06-1.23,0.12-1.82,0.27c-0.2,0.05-0.5,0.41-0.46,0.56c0.08,0.29,0.33,0.55,0.56,0.77
			c0.11,0.1,0.33,0.09,0.5,0.12c4.36,0.52,8.73,1,13.12,0.57c10.59-1.03,20.63-4.01,30.16-8.74c0.47-0.23,0.91-0.53,1.3-0.88
			c0.12-0.11,0.02-0.48,0.26-0.78c0.07,0.05,0.13,0.1,0.2,0.14c0.04,0.02,0.1,0,0.15,0c-0.13,0-0.26,0.03-0.38,0.01
			C429.63,451.44,429.57,451.36,429.26,451.61z M380.43,292.43c-4.29,1.04-8.51,0.85-12.73-0.5c-3.17-1.02-6.37-2-9.6-2.81
			c-8.85-2.24-17.7-2.55-26.5,0.38c-0.47,0.16-0.98,0.2-1.94,0.38c0.53-0.67,0.71-1.09,1.02-1.26c1.3-0.72,2.6-1.48,3.98-2.03
			c3.87-1.54,7.93-2.24,12.09-2.35c6.02-0.15,11.91,0.64,17.65,2.5c2.17,0.71,4.36,1.35,6.55,2c2.97,0.88,5.95,0.59,8.83-0.32
			c5.07-1.6,6.95-6.09,4.63-10.89c-0.49-1.02-1.14-2-1.88-2.84c-0.87-0.98-1.86-1.87-2.9-2.66c-2.32-1.76-4.89-3.1-7.58-4.21
			c-8.53-3.53-17.46-4.6-26.59-4.13c-11.87,0.6-23.27,3.31-34.21,7.97c-15.23,6.5-28.19,16.05-38.62,28.93
			c-7.45,9.19-12.72,19.59-16,30.92c-2.61,9-3.84,18.2-2.9,27.61c0.3,2.97,2.08,4.65,5.25,4.73c0.18-0.44,0.42-0.9,0.57-1.39
			c1.14-3.61,2.69-7.05,4.45-10.4c3.92-7.48,8.92-14.1,15.63-19.31c11.65-9.04,24.69-14.73,39.48-16.01
			c12.78-1.1,24.82,1.33,35.96,7.85c9.09,5.32,15.71,12.85,19.96,22.46c1.2,2.73,2.12,5.57,3.18,8.37c0.9,2.38,1.72,4.79,2.75,7.12
			c0.56,1.26,1.36,2.47,2.25,3.53c1.46,1.72,3.44,2.37,5.68,2.08c0.95-0.12,1.9-0.35,2.82-0.62c3.05-0.9,5.24-2.83,6.49-5.73
			c0.52-1.2,0.94-2.48,1.12-3.77c0.86-6.08,0.11-11.93-2.96-17.33c-1.56-2.75-3.32-5.38-4.99-8.06c-0.37-0.6-0.79-1.17-1.11-1.79
			c-0.44-0.84-0.28-1.65,0.34-2.14c0.6-0.48,1.37-0.44,2.17,0.19c0.41,0.32,0.78,0.7,1.16,1.07c1,0.99,1.98,2,2.98,2.98
			c3.85,3.74,6.63,8.1,8.28,13.26c1.38,4.33,2.21,8.66,1.64,13.21c-0.1,0.84-0.04,1.79,0.27,2.57c1.1,2.77,2.3,5.51,3.54,8.22
			c1.01,2.22,2.7,3.87,4.76,5.14c3.64,2.25,7.21,2.01,10.45-0.75c3.04-2.59,5.03-5.83,6.01-9.69c1.09-4.3,1.46-8.65,0.87-13.06
			c-0.61-4.54-1.58-8.99-3.36-13.24c-0.44-1.05-0.81-2.13-1.17-3.22c-0.1-0.29-0.01-0.64-0.01-0.98c0.95-0.08,1.37,0.57,1.82,1.06
			c1.69,1.81,3.06,3.84,4.12,6.08c1.55,3.29,2.47,6.75,2.94,10.35c0.09,0.67,0.29,1.32,0.44,1.96c0.51,0.1,0.85,0.22,1.19,0.23
			c2.9,0.06,5.06-1.33,6.65-3.62c2.51-3.64,3.87-7.67,3.63-12.14c-0.32-6.16-2.12-11.9-5.08-17.29
			c-2.97-5.42-6.81-10.22-10.85-14.87c-2.2-2.52-4.56-4.87-7.12-7.02c-6.77-5.71-14.26-10.24-22.39-13.7
			c-3.96-1.68-8.06-3.03-12.3-3.84c-0.48-0.09-1-0.01-1.58-0.01c-0.22,0.94-0.4,1.79-0.62,2.63c-0.9,3.57-3.08,6.05-6.46,7.48
			C382.02,291.93,381.42,292.11,380.43,292.43z M322.52,413.52c-0.27,0.19-0.53,0.38-0.89,0.64c-0.09-0.4-0.22-0.65-0.19-0.88
			c0.24-1.78,1.21-3.07,2.75-3.95c2.04-1.17,4.22-1.64,6.57-1.46c1.31,0.1,2.64,0.23,3.93,0.1c2.06-0.22,3.85-1.05,5.14-3.27
			c-0.55-0.42-1.22-0.76-1.62-1.3c-0.39-0.52-0.51-1.25-0.81-2.02c-0.42,0-0.85-0.03-1.27,0.01c-1.43,0.12-2.71,0.72-3.94,1.4
			c-2.15,1.19-4.35,1.64-6.83,1.13c-4.26-0.87-7.95,0.46-11.12,3.37c-2.3,2.11-4.07,4.6-5.16,7.53c-2.88,7.71-3.89,15.63-2.52,23.78
			c0.41,2.43,1.14,4.77,2.14,7.03c0.36,0.83,0.83,1.56,1.72,1.89c3.43,1.28,6.94,2.01,10.56,0.99c3.32-0.94,5.41-3.13,6.01-6.6
			c0.28-1.66,0.24-3.32-0.08-4.97c-0.19-0.95-0.42-1.88-0.65-2.82c-0.85-3.5-1.46-7.04-1.77-10.63c-0.38-4.43,0.41-8.56,3.08-12.22
			c0.17-0.24,0.21-0.58,0.32-0.94C325.64,410.49,324.98,410.87,322.52,413.52z M411.36,497.16c-14.03,4.24-28.41,6.31-43.01,7.08
			c-6.67,0.35-13.34,0.36-20.01,0.07c-7.28-0.31-14.55-0.84-21.75-1.99c-4.42-0.71-8.84-1.37-13.27-2.05
			c-0.61-0.09-1.22-0.16-1.83-0.18c-0.55-0.02-1.06,0.14-1.27,0.73c-0.17,0.49,0.26,1.08,0.98,1.36c0.33,0.13,0.67,0.23,1.01,0.31
			c6.14,1.51,12.24,3.13,18.41,4.48c7.64,1.67,15.43,2.41,23.23,2.94c7.45,0.5,14.91,0.39,22.37-0.04
			c11.62-0.67,23.01-2.61,34.14-6.03c10.87-3.34,21.28-7.72,30.94-13.77c3.73-2.33,7.33-4.83,10.61-7.77
			c0.23-0.21,0.41-0.48,1.02-1.19C439.15,487.43,425.74,492.97,411.36,497.16z M297.49,482.04c5.25,2.47,10.61,4.65,16.11,6.51
			c5.5,1.86,11.12,3.24,16.82,4.33c12.26,2.35,15.01,2.75,17.05,2.28c0.1-0.76-0.49-0.84-0.99-0.95c-2.91-0.68-5.81-1.38-8.73-1.99
			c-20.18-4.22-38.42-12.73-55.02-24.86c-8.1-5.92-15.71-12.42-22.78-19.52c-4.21-4.23-8.17-8.71-12.26-13.06
			c-1.2-1.28-2.42-2.54-3.67-3.78c-0.27-0.27-0.68-0.39-1.34-0.75c0.11,0.75,0.12,1.18,0.23,1.57c0.75,2.64,2,5.05,3.42,7.38
			c3.46,5.65,7.63,10.73,12.26,15.44C269.8,466.03,282.81,474.88,297.49,482.04z M296.58,392.12c0.68,5.05,3.97,11.32,7.22,13.66
			c0.7-0.44,0.87-1.25,1.25-1.92c1.4-2.43,2.63-4.99,4.26-7.26c3.04-4.26,7.26-6.51,12.55-6.65c3.49-0.1,6.81,0.64,10,1.96
			c2.4,0.99,4.45,2.43,5.98,4.58c0.87,1.21,1.75,2.47,2.87,3.43c2.48,2.13,1.96,2.56,1.08,4.99c-0.06,0.17-0.1,0.34-0.15,0.5
			c-1.35,3.75-3.77,5.44-7.79,5.38c-0.88-0.01-1.75-0.16-2.63-0.16c-1.25,0-1.76,0.68-1.77,2.34c0.49,0.1,0.99,0.28,1.5,0.3
			c9.77,0.39,17.49-3.68,23.72-10.96c0.11-0.13,0.2-0.29,0.31-0.43c1.02-1.28,1.2-2.67,0.55-4.27c-0.82-0.28-1.64-0.58-2.47-0.85
			c-7.12-2.24-14.23-4.51-21.36-6.71c-7.89-2.43-15.8-4.8-23.7-7.18c-1.85-0.56-3.72-1.06-5.57-1.58c-0.62-0.18-1.18-0.13-1.75,0.25
			c-1.08,0.72-2.19,1.39-3.42,2.17C296.36,386.19,296.54,388.93,296.58,392.12z M318.77,347.12c4.34-4.82,9.4-8.69,15.21-11.58
			c2.29-1.14,4.66-2.05,7.18-2.52c2.93-0.55,5.88-1.04,8.81-1.57c0.29-0.05,0.73,0.09,0.8-0.61c-0.32-0.15-0.67-0.38-1.05-0.49
			c-6.06-1.75-11.99-1.33-17.74,1.24c-10.78,4.81-18.67,12.63-23.87,23.18c-0.89,1.8-1.49,3.74-2.17,5.64c-0.7,1.96-0.32,4-0.27,6
			c0,0.13,0.19,0.36,0.31,0.37c0.23,0.01,0.53-0.02,0.68-0.17c0.24-0.24,0.4-0.57,0.56-0.88c1.12-2.09,2.29-4.15,3.35-6.27
			C312.71,355.1,315.32,351.06,318.77,347.12z M296.59,353.42c0.37-0.59,0.74-1.19,1.12-1.78c0.38-0.59,0.76-1.18,1.15-1.76
			c0.39-0.58,0.79-1.16,1.2-1.73c0.46-0.64,0.94-1.27,1.43-1.89c0.43-0.55,0.89-1.08,1.34-1.62c0.45-0.54,0.91-1.07,1.37-1.6
			c0.46-0.53,0.93-1.05,1.4-1.57c0.47-0.52,0.95-1.03,1.44-1.54c0.49-0.5,0.98-1,1.49-1.49c0.5-0.49,1.02-0.97,1.54-1.44
			c0.59-0.53,1.19-1.04,1.79-1.55c0.54-0.45,1.08-0.9,1.63-1.34c0.55-0.44,1.1-0.88,1.66-1.3c0.56-0.42,1.13-0.84,1.71-1.23
			c0.58-0.39,1.18-0.77,1.77-1.13s1.2-0.72,1.81-1.07c0.68-0.4,1.37-0.79,2.06-1.17c0.61-0.34,1.23-0.68,1.84-1.01
			s1.25-0.63,1.86-0.99c0.55-0.32,1.26-0.44,1.91-1.3c-0.93-0.02-1.51-0.11-2.07-0.03c-5.21,0.71-10,2.58-14.4,5.43
			c-10.38,6.73-17.49,16.03-21.59,27.67c-0.62,1.77-0.85,3.57-0.8,5.43c0.01,0.29,0.23,0.58,0.34,0.86c0.32-0.09,0.54-0.09,0.64-0.2
			c1.25-1.36,2.39-2.78,3.18-4.47C294.34,357.62,295.4,355.7,296.59,353.42z M284.02,348.75c2.85-5.45,6.2-10.57,10.03-15.38
			c0.05-0.06-0.1-0.26-0.16-0.44c-0.24,0.09-0.51,0.14-0.71,0.28c-7.81,5.25-13.31,12.35-16.76,21.07
			c-0.29,0.73-0.52,1.49-0.74,2.25c-0.5,1.73-0.31,3.48-0.07,5.22c0.04,0.27,0.37,0.65,0.63,0.71c0.26,0.07,0.71-0.11,0.9-0.33
			c1.4-1.69,2.65-3.47,3.48-5.54C281.64,354.07,282.77,351.6,284.02,348.75z M273.85,388.66c-0.25-2.35-0.5-4.71-0.76-7.06
			c0-0.04-0.14-0.07-0.3-0.15c-0.15,0.12-0.42,0.23-0.49,0.42c-0.35,0.9-0.76,1.79-0.95,2.73c-1.08,5.48-1.23,10.98-0.09,16.48
			c0.84,4.04,2.75,7.56,5.26,10.8c0.16,0.21,0.34,0.42,0.57,0.54c0.22,0.11,0.57,0.22,0.74,0.12c0.27-0.16,0.53-0.46,0.62-0.76
			c0.09-0.31,0.02-0.7-0.06-1.03c-0.65-2.64-1.22-5.31-2.02-7.91C274.99,398.36,274.21,393.8,273.85,388.66z M397.17,488.82
			c3.64-0.57,7.25-1.27,10.77-2.4c0.43-0.14,0.81-0.44,1.47-0.8c-3.83,0.24-7.32,0.49-10.81,0.66c-8.67,0.42-17.34,0.79-26.01,1.18
			c-1.31,0.06-2.63,0.11-3.94,0.19c-0.43,0.03-0.86,0.13-0.84,0.9c0.34,0.12,0.72,0.34,1.12,0.4c3.56,0.5,7.12,0.93,10.73,0.96
			C385.37,489.96,391.05,489.69,397.17,488.82z M321.17,395.12c0.3,0,0.6,0,0.95,0c-0.23-1.38-0.9-2.23-2.05-2.7
			c-1.53-0.62-3.51,0.14-3.98,1.55c-0.41,1.26-0.19,2.43,0.69,3.44c0.81,0.94,1.77,1.38,3.19,0.87c-0.43-0.53-0.86-0.94-1.14-1.44
			c-0.3-0.52-0.51-1.1-0.65-1.68c-0.13-0.53,0.47-1.05,1-0.88C319.76,394.47,320.31,394.75,321.17,395.12z M330.5,399.93
			c0.39-0.18,0.85-0.28,1.16-0.55c0.91-0.81,0.98-1.97,0.26-2.77c-0.81-0.89-2.16-0.92-3.02-0.08c-0.78,0.76-0.78,1.91,0.08,2.79
			C329.25,399.61,329.72,399.72,330.5,399.93z"/>
		<path d="M292.8,197.61c2.69-2.54,5.79-3.97,9.05-5.07c3.85-1.3,7.84-1.94,11.89-2.11c2.84-0.12,5.6,0.38,8.24,1.44
			c2.85,1.13,4.88,3.1,5.87,6.02c0.51,1.49,0.94,3.02,1.23,4.57c0.87,4.76-0.29,9.05-3.2,12.89c-0.42,0.56-0.82,1.12-1.23,1.69
			c-0.05,0.06-0.03,0.17-0.05,0.27c0.23,0.79,0.97,0.95,1.59,1.22c3.93,1.76,7.97,3.24,12.12,4.38c1.18,0.32,2.37,0.68,3.49,1.16
			c1.82,0.76,2.73,2.2,2.56,4.17c-0.24,2.84-1.13,5.49-2.59,7.94c-0.78,1.3-2.01,1.91-3.52,1.98c-1.7,0.07-3.34-0.25-4.86-0.97
			c-5.79-2.74-11.79-5.03-17.4-8.15c-0.44-0.24-0.92-0.41-1.62-0.71c-0.05,0.72-0.18,1.22-0.09,1.67c0.43,2.33,0.97,4.64,1.37,6.98
			c0.17,1.02,0.2,2.1,0.12,3.13c-0.1,1.2-0.74,2.15-1.86,2.69c-2.39,1.15-4.89,1.99-7.5,2.38c-1.89,0.28-2.99-0.5-3.56-2.34
			c-0.36-1.17-0.62-2.38-0.86-3.58c-1.48-7.23-3.18-14.4-5.43-21.43c-0.59-1.84-0.96-3.74-1.54-5.58c-0.86-2.76-1.82-5.49-2.74-8.23
			c-0.14-0.41-0.34-0.81-0.51-1.21C290.95,200.91,291.09,199.2,292.8,197.61z M307.94,207.49c0.63,2.12,0.39,4.5,1.72,6.43
			c0.41-0.05,0.69-0.02,0.91-0.13c2-0.94,3.83-2.16,5.27-3.83c0.73-0.84,1.32-1.87,1.71-2.92c0.96-2.57-0.33-4.54-3.07-4.87
			c-1.42-0.17-2.8,0.08-4.14,0.53C307.29,203.72,307.07,204.28,307.94,207.49z"/>
		<path d="M392.72,242.61c-1.18-2.07-2.36-3.94-3.32-5.9c-0.95-1.95-1.69-4-2.49-5.91c-0.78-0.11-0.98,0.34-1.14,0.72
			c-0.67,1.53-1.3,3.07-1.95,4.61c-1.66,3.95-2.29,4.38-6.49,4.33c-1.05-0.01-2.11-0.06-3.15-0.17c-0.6-0.06-1.22-0.22-1.78-0.46
			c-1.5-0.63-2.08-1.73-1.82-3.38c0.1-0.6,0.25-1.21,0.47-1.78c0.62-1.64,1.22-3.3,1.95-4.89c3.03-6.63,6.19-13.2,8.82-20.01
			c1.91-4.93,3.37-9.98,4.84-15.04c0.2-0.67,0.35-1.37,0.6-2.02c0.49-1.3,1.29-1.92,2.6-1.76c3.13,0.39,5.95,1.54,8.14,3.9
			c1.02,1.09,1.45,2.45,1.18,3.9c-0.33,1.72-0.72,3.44-1.29,5.09c-0.81,2.32-1.84,4.56-2.74,6.85c-0.21,0.54-0.3,1.12-0.43,1.61
			c0.65,0.56,1.14,0.25,1.61,0.08c3.46-1.29,6.87-2.71,9.98-4.73c1.84-1.19,3.64-2.46,5.48-3.66c0.73-0.48,1.48-0.95,2.28-1.3
			c1.26-0.55,2.41-0.23,3.39,0.7c0.19,0.18,0.39,0.37,0.53,0.59c1.48,2.3,2.7,4.73,3.29,7.42c0.35,1.6-0.13,2.98-1.46,3.96
			c-0.84,0.62-1.73,1.21-2.66,1.7c-4.99,2.64-10.15,4.84-15.76,5.8c-0.5,0.08-0.97,0.31-1.62,0.53c0.13,0.58,0.14,1.11,0.36,1.53
			c0.84,1.64,1.69,3.28,2.63,4.87c2.32,3.93,4.33,8.06,7.28,11.59c0.81,0.97,0.92,2.06,0.53,3.22c-0.77,2.3-2.02,4.3-3.94,5.81
			c-2.66,2.1-5.67,1.95-8.07-0.42C396.37,247.8,394.42,245.43,392.72,242.61z"/>
		<path d="M267.31,242.59c-1.63-2.3-3.15-4.45-4.69-6.58c-0.14-0.2-0.42-0.3-0.75-0.52c-0.41,0.23-0.93,0.4-1.27,0.75
			c-1.33,1.4-2.61,2.84-3.89,4.28c-1.34,1.51-2.64,3.05-3.98,4.56c-0.47,0.52-0.99,0.99-1.53,1.45c-0.98,0.83-2.12,0.97-3.18,0.3
			c-2.24-1.4-4.27-3.07-5.87-5.2c-0.6-0.8-0.78-1.75-0.75-2.74c0.04-1.52,0.46-2.92,1.11-4.3c1.63-3.44,3.86-6.46,6.4-9.28
			c4.29-4.76,8.91-9.2,13.5-13.67c2.56-2.49,5.49-4.35,8.85-5.55c0.74-0.27,1.5-0.48,2.26-0.69c1.15-0.31,2.26-0.16,3.3,0.43
			c3.64,2.04,5.93,5.12,7.01,9.13c0.35,1.32,0.02,2.45-1.11,3.26c-1.72,1.22-3.47,2.39-5.2,3.58c-1.16,0.79-2.34,1.55-3.48,2.37
			c-0.7,0.51-1.44,1.02-1.79,2.1c0.18,0.33,0.35,0.83,0.67,1.2c1.88,2.2,3.75,4.42,5.72,6.53c1.07,1.15,2.35,2.11,3.53,3.14
			c1.72,1.5,3.43,3,5.16,4.48c0.87,0.74,1.72,1.52,2.68,2.11c2.74,1.7,3.42,7.08,0.62,9.52c-1.32,1.15-2.48,2.49-3.79,3.65
			c-0.98,0.87-2.05,1.67-3.17,2.34c-2.39,1.44-4.15,1.18-6.14-0.83c-0.55-0.56-1.06-1.18-1.49-1.83c-1.02-1.54-1.98-3.11-2.95-4.67
			C271.2,248.86,269.31,245.8,267.31,242.59z"/>
		<path d="M444.34,265.27c-3.87,4.04-8.51,5.1-13.66,4.2c-4.2-0.74-7.93-2.6-10.45-6.1c-3.82-5.3-5.13-11.11-2.52-17.4
			c0.5-1.21,1.07-2.41,1.73-3.55c0.43-0.75,1-1.46,1.64-2.03c1.69-1.51,3.86-1.71,5.88-0.68c3.03,1.55,4.21,4.05,3.45,7.43
			c-0.27,1.2-0.64,2.38-0.91,3.57c-0.33,1.46-0.52,2.95-0.28,4.45c0.4,2.45,2.42,3.54,4.68,2.52c1.66-0.75,2.63-2.12,2.82-3.86
			c0.15-1.37,0.1-2.82-0.15-4.18c-0.29-1.54-0.89-3.03-1.37-4.53c-0.64-2.01-1.42-3.98-1.93-6.02c-0.78-3.11-0.79-6.24,0.18-9.37
			c1-3.22,2.97-5.59,6.01-6.95c4.91-2.19,9.73-2.1,14.28,1.03c5.29,3.64,8.99,8.58,11.59,14.39c1.44,3.21,0.87,6.17-1.35,8.85
			c-1.07,1.29-2.29,2.43-3.76,3.27c-2.4,1.37-5.02,1.07-7.05-0.82c-1.38-1.29-2.29-2.9-2.78-4.71c-0.53-1.95-0.96-3.92-1.43-5.89
			c-0.2-0.85-0.35-1.73-0.62-2.56c-0.22-0.66-0.54-1.3-0.9-1.9c-0.37-0.62-0.91-1.11-1.72-0.97c-0.82,0.14-1.19,0.81-1.28,1.5
			c-0.13,1.03-0.26,2.12-0.06,3.12c0.33,1.63,0.89,3.21,1.42,4.79c0.33,1,0.84,1.94,1.18,2.93c0.43,1.24,0.87,2.5,1.13,3.78
			C449.33,255.33,448.41,260.6,444.34,265.27z"/>
		<path d="M367.73,200.81c-1.4,9.35-2.18,18.52-2.91,27.7c-0.15,1.92-0.35,3.85-0.67,5.75c-0.32,1.91-1.07,2.62-2.96,2.75
			c-2.01,0.14-4.04,0.18-6.04,0.05c-2.42-0.16-3.36-1.27-3.42-3.77c-0.03-1.31,0.09-2.63,0.14-3.94c0.37-9.11,0.77-18.22,1.1-27.34
			c0.11-3.07,0.02-6.14,0.07-9.21c0.02-1.05,0.12-2.1,0.26-3.14c0.19-1.39,1.1-2.16,2.4-2.47c0.59-0.14,1.22-0.22,1.82-0.17
			c2.44,0.22,4.88,0.5,7.32,0.78c0.34,0.04,0.68,0.17,1.02,0.27c1.51,0.46,2.35,1.47,2.47,3.05c0.05,0.61,0.09,1.23,0.05,1.84
			C368.18,195.51,367.97,198.04,367.73,200.81z"/>
		<path d="M325.67,462.03c11.8,4.71,23.82,7.98,36,10.69c2.31,0.51,4.63,1.02,6.94,1.55c0.84,0.19,1.66,0.46,2.56,0.71
			c-0.65,0.91-1.49,0.79-2.24,0.85c-3.18,0.25-6.32-0.1-9.43-0.69c-13.33-2.53-26.26-6.4-38.66-11.93
			c-3.28-1.47-6.46-3.18-9.66-4.83c-1.01-0.52-1.95-1.19-2.88-1.84c-0.71-0.5-1.35-1.08-2-1.61c0.21-0.66,0.58-0.35,0.83-0.26
			c2.14,0.79,4.28,1.58,6.4,2.43C317.52,458.7,321.5,460.33,325.67,462.03z"/>
		<path d="M269.23,285.57c-0.6,1-1.01,1.89-1.64,2.59c-2.63,2.91-6.76,2.57-8.97-0.7c-0.91-1.34-1.33-2.86-1.4-4.45
			c-0.17-3.39,0.88-6.37,3.23-8.86c0.86-0.91,1.87-1.59,3.05-1.99c2.22-0.75,4.26,0.12,5.19,2.28
			C270.2,278.01,270.9,281.63,269.23,285.57z M264.17,276.09c-0.5,0.6-1.11,1.14-1.49,1.81c-1.03,1.85-1.26,3.81-0.48,5.83
			c0.41,1.04,1.36,1.24,2.02,0.36c1.52-2.01,2.34-4.31,2.43-6.83C266.7,276.08,266.04,275.7,264.17,276.09z"/>
		<path d="M437.77,293.37c-2.34-0.1-4.39-0.54-6.32-1.44c-1.37-0.64-2.59-1.48-3.51-2.69c-1.74-2.31-1.2-5.02,1.29-6.51
			c0.92-0.55,1.93-0.86,3-0.83c2.72,0.07,5.43,0.28,8.04,1.06c1.15,0.34,2.32,0.86,3.3,1.56c2.55,1.81,2.66,4.9,0.26,6.92
			c-0.78,0.66-1.77,1.14-2.75,1.46C440.11,293.21,439.03,293.22,437.77,293.37z M437.53,289.29c1.24,0.03,2.46-0.08,3.56-0.73
			c0.69-0.4,0.82-1.24,0.21-1.77c-2.93-2.52-6.19-3.08-9.79-1.54c-0.42,0.18-0.68,0.71-1,1.05c0.53,1.21,1.49,1.7,2.48,2
			C434.33,288.72,435.72,288.96,437.53,289.29z"/>
		<path d="M364.33,361.2c-0.52,3.09-1.34,5.86-2.35,8.59c-0.46,1.22-0.75,2.52-1.02,3.8c-0.15,0.7,0.52,1.14,1.18,0.88
			c1.49-0.57,2.5-1.68,3.09-3.08c0.78-1.85,1.38-3.78,2.01-5.7c0.25-0.75,0.3-1.56,0.59-2.29c0.13-0.32,0.59-0.62,0.95-0.7
			c0.22-0.05,0.72,0.28,0.79,0.52c1.38,4.48,1.6,8.82-1.73,12.67c-0.93,1.08-2,2-3.34,2.51c-0.81,0.31-1.68,0.56-2.54,0.59
			c-2.7,0.11-4.53-1.71-4.43-4.39c0.03-0.86,0.25-1.74,0.53-2.56c0.37-1.08,0.84-2.12,1.35-3.14c1.91-3.79,3.26-7.76,4.16-11.89
			c0.05-0.24,0.23-0.45,0.33-0.65c0.57-0.05,0.59,0.37,0.59,0.68C364.48,358.35,364.41,359.66,364.33,361.2z"/>
		<path d="M247.2,313.86c-1.7,0.31-2.93-0.33-4.06-1.2c-1.13-0.87-1.96-1.99-2.52-3.3c-1.26-2.96-1.26-5.95-0.08-8.93
			c0.53-1.34,1.38-2.43,2.67-3.12c1.38-0.73,2.7-0.57,3.89,0.44c3.28,2.78,4.86,8.41,3.48,12.49
			C250.04,311.88,249.15,313.23,247.2,313.86z M247.06,308.43c0.8-1.81,0.87-3.7,0.71-5.64c-0.1-1.22-0.81-1.87-1.79-2.35
			c-0.73-0.36-1.35-0.12-1.72,0.63c-1.07,2.2-0.55,5.85,1.11,7.62c0.17,0.18,0.42,0.43,0.63,0.42
			C246.29,309.11,246.58,308.91,247.06,308.43z"/>
		<path d="M400.9,394.03c-0.63-0.09-1.08-0.13-1.48-0.29c-2.1-0.81-3.17-2.51-2.86-4.75c0.14-1.03,0.5-2.04,0.88-3.02
			c0.62-1.64,1.31-3.26,2.02-4.86c0.7-1.59,1.46-3.17,2.24-4.86c0.75,0.83,0.72,1.78,0.75,2.7c0.06,2.38-0.34,4.72-0.79,7.05
			c-0.17,0.86-0.26,1.73-0.36,2.6c-0.02,0.15,0.12,0.32,0.25,0.64c0.44-0.12,0.97-0.14,1.36-0.39c1.36-0.86,1.88-2.28,2.2-3.76
			c0.49-2.25,0.5-4.52,0.32-6.81c-0.06-0.73-0.39-1.59,0.47-2.22c0.21,0.12,0.55,0.18,0.62,0.36c1.38,3.17,2.51,6.4,1.74,9.93
			c-0.22,1.02-0.52,2.05-0.95,3C406.1,392.02,404.1,393.7,400.9,394.03z"/>
		<path d="M380.56,320.92c-2.35-0.57-3.98-1.89-5.36-3.51c-1.3-1.54-2.58-3.11-3.76-4.74c-2.61-3.6-5.76-6.59-9.56-8.9
			c-0.97-0.59-1.91-1.25-2.84-1.91c-0.18-0.13-0.27-0.39-0.49-0.73c1.15-0.38,2.16-0.19,3.14,0.04c1.9,0.44,3.62,1.3,5.26,2.34
			c2.09,1.32,3.93,2.94,5.54,4.81c1.6,1.86,3.14,3.78,4.79,5.6c0.82,0.89,1.77,1.69,2.78,2.36c0.87,0.59,1.7,0.29,2.22-0.62
			c0.99-1.71,0.89-3.55,0.41-5.36c-0.65-2.43-1.97-4.5-3.81-6.2c-1.28-1.19-2.68-2.25-4.03-3.38c-0.47-0.39-0.98-0.76-1.36-1.22
			c-0.18-0.22-0.25-0.71-0.13-0.96c0.12-0.23,0.54-0.37,0.86-0.43c0.24-0.05,0.53,0.04,0.76,0.16c2.27,1.13,4.64,2.11,6.79,3.45
			c3.07,1.93,5.11,4.77,6.13,8.27c0.65,2.26,0.6,4.52-0.32,6.7C386.29,319.74,384.21,321.02,380.56,320.92z"/>
		<path d="M301.49,395.45c-1.17-2.32-1.68-4.6-1.86-6.99c-0.14-1.73,0.34-3.09,1.79-4.09c0.29-0.2,0.56-0.41,0.93-0.69
			c1.99,0.47,4.02,0.94,6.08,1.42c0.93,1.67,1.26,3.46,1.31,5.31c0.02,0.75-0.27,1.36-0.84,1.84c-0.33,0.29-0.66,0.58-0.99,0.86
			c-1.5,1.25-2.73,2.71-3.59,4.47c-0.18,0.38-0.44,0.72-0.72,1.17C302.51,397.88,302.2,396.65,301.49,395.45z"/>
	</g>
</g>
</svg>
